External Loads File
version=1
nRows=93
nColumns=13
Range=5.000000e-03-10 seconds
endheader
time 	forceRightX 	forceRightY 	forceRightZ 	pointRightX 	pointRightY 	pointRightZ 	forceLeftX 	forceLeftY 	forceLeftZ 	pointLeftX 	pointLeftY 	pointLeftZ 		
5.005000 -64.405380 147.656127 -0.000000 0.377673 0.483716 -0.125941 125.452995 64.599552 -0.000000 0.219886 0.170368 -0.362972
5.010000 -65.769862 169.667273 -0.000000 0.384567 0.478205 -0.125581 119.446984 45.569519 -0.000000 0.212222 0.175914 -0.362705
5.015000 -67.513210 193.858402 -0.000000 0.391211 0.472040 -0.125142 113.361684 29.140697 -0.000000 0.204885 0.182047 -0.362524
5.020000 -69.541312 219.618606 -0.000000 0.397719 0.465139 -0.125095 107.610956 15.519599 -0.000000 0.197836 0.188743 -0.362301
5.025000 -72.110157 246.023048 -0.000000 0.403743 0.457648 -0.125215 102.573370 4.992786 -0.000000 0.191122 0.195919 -0.362037
5.030000 -74.832742 272.239529 -0.000000 0.409911 0.449569 -0.124903 98.612740 -2.582754 -0.000000 0.184797 0.203627 -0.361871
5.035000 -78.204281 297.202732 -0.000000 0.415597 0.441153 -0.124805 95.980279 -7.127588 -0.000000 0.178875 0.211754 -0.361818
5.040000 -81.935869 320.210153 -0.000000 0.421043 0.432217 -0.125114 94.812902 -9.008339 -0.000000 0.173363 0.220205 -0.361998
5.045000 -85.801497 340.756629 -0.000000 0.426399 0.422852 -0.125388 95.121631 -8.682968 -0.000000 0.168351 0.229079 -0.362046
5.050000 -89.950579 358.508479 -0.000000 0.431006 0.412950 -0.125462 96.822707 -6.608240 -0.000000 0.163811 0.238296 -0.362095
5.055000 -94.653152 373.376762 -0.000000 0.434890 0.403012 -0.125294 99.742181 -3.254024 -0.000000 0.159731 0.247772 -0.362113
5.060000 -98.904792 385.849332 -0.000000 0.438756 0.392679 -0.125351 103.622356 0.587284 -0.000000 0.156260 0.257584 -0.362163
5.065000 -102.925244 396.300336 -0.000000 0.442358 0.382241 -0.125367 108.163930 4.518883 -0.000000 0.153301 0.267629 -0.362139
5.070000 -106.480345 405.327811 -0.000000 0.445520 0.371606 -0.125352 113.022812 8.145707 -0.000000 0.150912 0.277843 -0.362155
5.075000 -109.439606 413.557845 -0.000000 0.448165 0.360952 -0.125327 117.851540 11.226769 -0.000000 0.149132 0.288266 -0.362128
5.080000 -111.188033 421.751512 -0.000000 0.450097 0.350027 -0.125313 122.346073 13.468747 -0.000000 0.147909 0.298876 -0.362082
5.085000 -111.923230 430.395949 -0.000000 0.450324 0.339034 -0.124707 126.233083 14.869175 -0.000000 0.147302 0.309555 -0.362022
5.090000 -110.909818 440.108468 -0.000000 0.450941 0.328045 -0.124636 129.325167 15.194293 -0.000000 0.146863 0.320359 -0.360977
5.095000 -107.859378 451.221160 -0.000000 0.450853 0.316851 -0.124427 131.455186 14.356783 -0.000000 0.147525 0.331234 -0.360931
5.100000 -102.911019 463.761486 -0.000000 0.449906 0.305786 -0.124483 132.447397 12.391475 -0.000000 0.148822 0.342112 -0.360806
5.105000 -95.761900 477.658904 -0.000000 0.448614 0.294808 -0.123988 132.137936 9.199142 -0.000000 0.150809 0.353029 -0.360747
5.110000 -85.069489 492.812253 -0.000000 0.446245 0.283223 -0.124473 130.385462 4.440600 -0.000000 0.153456 0.363912 -0.360682
5.115000 -73.086680 508.271957 -0.000000 0.443534 0.272446 -0.124616 127.044412 -1.196585 -0.000000 0.156754 0.374834 -0.360599
5.120000 -61.219197 523.310385 -0.000000 0.442035 0.261962 -0.126055 122.113118 -7.328112 -0.000000 0.160734 0.385150 -0.360506
5.125000 -46.078372 537.714783 -0.000000 0.438063 0.251630 -0.125730 115.574885 -14.711440 -0.000000 0.165336 0.395501 -0.360482
5.130000 -30.073693 550.524430 -0.000000 0.433673 0.241635 -0.125737 107.505422 -22.697475 -0.000000 0.170557 0.405431 -0.360384
5.135000 -13.770065 561.138943 -0.000000 0.428886 0.232128 -0.125817 98.069612 -31.086277 -0.000000 0.176311 0.414974 -0.360408
5.140000 5.047067 569.052056 -0.000000 0.422198 0.222871 -0.124867 87.351558 -40.099935 -0.000000 0.182743 0.424287 -0.360609
5.145000 22.068879 573.764985 -0.000000 0.416394 0.213949 -0.124856 75.898378 -48.880144 -0.000000 0.189416 0.433139 -0.360415
5.150000 38.585406 574.942992 -0.000000 0.410135 0.205782 -0.124774 63.920436 -57.537193 -0.000000 0.196761 0.441601 -0.360772
5.155000 54.406945 572.274710 -0.000000 0.403349 0.197869 -0.124692 51.655368 -65.915958 -0.000000 0.204237 0.449633 -0.360662
5.160000 69.066904 565.532693 -0.000000 0.396259 0.190532 -0.124717 39.339953 -73.809538 -0.000000 0.212271 0.457024 -0.361099
5.165000 81.932201 554.588275 -0.000000 0.389003 0.183750 -0.124728 27.246360 -80.970836 -0.000000 0.220470 0.463907 -0.361114
5.170000 93.449009 539.235177 -0.000000 0.381352 0.177506 -0.124704 15.488581 -87.192312 -0.000000 0.228906 0.470295 -0.361285
5.175000 103.632352 519.367158 -0.000000 0.373399 0.171790 -0.124730 4.176978 -92.238302 -0.000000 0.237688 0.476085 -0.361464
5.180000 112.031644 495.074667 -0.000000 0.365056 0.166774 -0.124893 -6.545762 -95.933704 -0.000000 0.246422 0.481223 -0.361577
5.185000 119.085962 466.444270 -0.000000 0.356601 0.162320 -0.124783 -16.733209 -98.189705 -0.000000 0.255517 0.485790 -0.361925
5.190000 124.441644 433.976734 -0.000000 0.347981 0.158621 -0.124781 -26.303659 -98.991329 -0.000000 0.264677 0.489620 -0.362213
5.195000 128.916674 398.083187 -0.000000 0.338654 0.155596 -0.125136 -35.430810 -98.295671 -0.000000 0.273930 0.492591 -0.362518
5.200000 131.864341 359.791982 -0.000000 0.329480 0.153166 -0.125096 -43.941175 -96.169017 -0.000000 0.283491 0.495003 -0.363189
5.205000 132.564154 320.417421 -0.000000 0.320791 0.151443 -0.125301 -51.570536 -92.801461 -0.000000 0.292866 0.496638 -0.363645
5.210000 132.531372 280.423397 -0.000000 0.311294 0.150337 -0.125283 -58.685513 -88.069313 -0.000000 0.302137 0.497665 -0.364094
5.215000 131.484186 240.815710 -0.000000 0.301188 0.149843 -0.125242 -65.231660 -82.014672 -0.000000 0.311275 0.498072 -0.364457
5.220000 129.093196 202.572018 -0.000000 0.291020 0.150024 -0.125123 -71.177763 -74.690254 -0.000000 0.320286 0.497691 -0.364829
5.225000 125.402548 166.393546 -0.000000 0.281069 0.150930 -0.125070 -76.639547 -66.031410 -0.000000 0.329149 0.496643 -0.365159
5.230000 120.555163 132.817417 -0.000000 0.271781 0.152544 -0.125121 -81.777432 -55.924621 -0.000000 0.337966 0.494928 -0.365452
5.235000 114.991299 102.013463 -0.000000 0.262401 0.154729 -0.125084 -86.905111 -44.070932 -0.000000 0.346371 0.492404 -0.365723
5.240000 108.901772 74.192041 -0.000000 0.253089 0.157729 -0.125098 -92.272343 -30.230574 -0.000000 0.354610 0.489188 -0.366015
5.245000 102.350764 49.621644 -0.000000 0.243972 0.161247 -0.125085 -98.078968 -14.290831 -0.000000 0.362535 0.485072 -0.366301
5.250000 95.491242 28.438862 -0.000000 0.235132 0.165421 -0.125028 -104.539906 3.859721 -0.000000 0.370181 0.480322 -0.366583
5.255000 88.504199 10.682930 -0.000000 0.226515 0.170163 -0.125024 -111.819280 24.293048 -0.000000 0.377533 0.474855 -0.366959
5.260000 81.554022 -3.704118 -0.000000 0.217964 0.175542 -0.125401 -119.979381 46.989414 -0.000000 0.384505 0.468709 -0.367335
5.265000 74.825546 -14.715674 -0.000000 0.210355 0.181482 -0.125093 -129.127602 71.510812 -0.000000 0.391187 0.461831 -0.367762
5.270000 68.498354 -22.747365 -0.000000 0.202922 0.187977 -0.125043 -139.096046 97.732658 -0.000000 0.397669 0.454438 -0.368101
5.275000 62.751132 -28.054532 -0.000000 0.195868 0.195063 -0.125105 -149.701342 125.127562 -0.000000 0.403832 0.446374 -0.368423
5.280000 57.747920 -30.950428 -0.000000 0.189243 0.202757 -0.125150 -160.718179 153.102252 -0.000000 0.409669 0.437857 -0.368647
5.285000 53.592229 -31.803410 -0.000000 0.183129 0.211207 -0.125109 -171.779711 181.214789 -0.000000 0.415208 0.428863 -0.368811
5.290000 50.410610 -30.824431 -0.000000 0.177446 0.219713 -0.125178 -182.845055 208.789722 -0.000000 0.420523 0.419539 -0.368725
5.295000 48.257181 -28.262517 -0.000000 0.172356 0.228753 -0.125237 -193.666115 235.532904 -0.000000 0.425328 0.409941 -0.368749
5.300000 47.165147 -24.386887 -0.000000 0.167829 0.238069 -0.125280 -203.861653 261.436290 -0.000000 0.429967 0.399911 -0.368775
5.305000 47.216426 -19.380961 -0.000000 0.164199 0.247781 -0.125143 -213.604186 286.224088 -0.000000 0.433942 0.389690 -0.368871
5.310000 48.417606 -13.571810 -0.000000 0.160761 0.257685 -0.125341 -222.296881 310.356608 -0.000000 0.437562 0.379210 -0.368842
5.315000 50.819866 -7.179434 -0.000000 0.158003 0.267799 -0.125492 -230.101044 333.827940 -0.000000 0.440793 0.368645 -0.368799
5.320000 54.399350 -0.556721 -0.000000 0.155930 0.278036 -0.125532 -236.752988 356.998224 -0.000000 0.443341 0.357768 -0.368834
5.325000 59.033648 5.895463 -0.000000 0.154559 0.288464 -0.125568 -242.185873 380.098041 -0.000000 0.445387 0.346885 -0.368780
5.330000 64.455603 11.654546 -0.000000 0.153643 0.299096 -0.125498 -245.813715 403.682387 -0.000000 0.446888 0.335794 -0.368710
5.335000 70.208356 16.422742 -0.000000 0.153361 0.309672 -0.125482 -248.155072 427.572023 -0.000000 0.447745 0.324789 -0.368671
5.340000 75.749969 19.840900 -0.000000 0.153847 0.320392 -0.125394 -248.470683 452.234663 -0.000000 0.447922 0.313787 -0.368587
5.345000 80.473298 21.867601 -0.000000 0.154950 0.330921 -0.125633 -246.985638 477.380384 -0.000000 0.447627 0.302866 -0.368459
5.350000 83.906820 22.208716 -0.000000 0.156768 0.342215 -0.125682 -241.608642 503.666543 -0.000000 0.446672 0.291990 -0.368384
5.355000 85.464581 21.392760 -0.000000 0.158930 0.352604 -0.126012 -234.471177 529.373016 -0.000000 0.444937 0.281032 -0.368595
5.360000 84.873639 19.361378 -0.000000 0.162402 0.363113 -0.125811 -223.589015 554.605935 -0.000000 0.442768 0.270261 -0.368504
5.365000 81.922110 16.588098 -0.000000 0.165936 0.373557 -0.126083 -209.836830 578.033187 -0.000000 0.439979 0.259861 -0.368377
5.370000 76.637258 13.341070 -0.000000 0.170023 0.383917 -0.126122 -192.715605 598.904729 -0.000000 0.436612 0.249693 -0.368157
5.375000 69.177566 9.937296 -0.000000 0.174988 0.394071 -0.126349 -172.213331 616.326765 -0.000000 0.432669 0.239750 -0.367964
5.380000 59.802610 6.775101 -0.000000 0.180395 0.403901 -0.126625 -149.574644 629.175020 -0.000000 0.428228 0.230198 -0.367733
5.385000 48.905439 3.947861 -0.000000 0.187300 0.413637 -0.126160 -123.382493 637.074795 -0.000000 0.423216 0.221052 -0.367572
5.390000 36.919391 1.951924 -0.000000 0.193731 0.422959 -0.126332 -97.116783 638.681372 -0.000000 0.417748 0.212189 -0.367314
5.395000 24.375692 0.935253 -0.000000 0.199733 0.431885 -0.126850 -71.817219 633.553928 -0.000000 0.411782 0.203866 -0.367140
5.400000 11.823421 0.925252 -0.000000 0.206421 0.440347 -0.127412 -46.432495 621.659148 -0.000000 0.405330 0.196034 -0.366983
5.405000 -0.211351 2.033900 -0.000000 0.215811 0.448617 -0.126468 -18.087180 603.015365 -0.000000 0.398452 0.188690 -0.366823
5.410000 -11.308915 4.359958 -0.000000 0.222926 0.456214 -0.127352 4.290898 577.495428 -0.000000 0.391197 0.181841 -0.366670
5.415000 -21.125013 7.834205 -0.000000 0.231148 0.463230 -0.127633 25.544750 546.001570 -0.000000 0.383528 0.175672 -0.366501
5.420000 -29.459904 12.328873 -0.000000 0.239495 0.469700 -0.127339 43.873892 509.534104 -0.000000 0.375510 0.170216 -0.366308
5.425000 -36.247375 17.646240 -0.000000 0.248013 0.475598 -0.127618 59.465936 469.435967 -0.000000 0.367123 0.165297 -0.366110
5.430000 -41.588486 23.497064 -0.000000 0.256547 0.480986 -0.127427 72.284819 427.316521 -0.000000 0.358328 0.161102 -0.365923
5.435000 -45.679881 29.638424 -0.000000 0.265347 0.485817 -0.127299 83.004198 384.782019 -0.000000 0.349164 0.157446 -0.365681
5.440000 -48.811017 35.845979 -0.000000 0.274304 0.489916 -0.127300 91.855069 343.445829 -0.000000 0.339618 0.154354 -0.365406
5.445000 -51.285528 41.995135 -0.000000 0.283397 0.493472 -0.127232 99.197151 304.694057 -0.000000 0.329806 0.151922 -0.365197
5.450000 -53.336316 48.073481 -0.000000 0.292646 0.496321 -0.127154 105.454764 269.511521 -0.000000 0.319717 0.150182 -0.364950
5.455000 -55.153976 54.083786 -0.000000 0.301820 0.498429 -0.127101 110.659070 238.585588 -0.000000 0.309540 0.149058 -0.364687
5.460000 -56.746425 60.194469 -0.000000 0.311248 0.499791 -0.126749 115.253776 212.008935 -0.000000 0.299344 0.148685 -0.364409
5.465000 -58.212741 66.481901 -0.000000 0.320374 0.500528 -0.126695 118.986600 189.819054 -0.000000 0.289227 0.148961 -0.364083
